<?xml version="1.0" encoding="utf-8"?>
<!-- Generator: Adobe Illustrator 16.0.0, SVG Export Plug-In . SVG Version: 6.00 Build 0)  -->
<!DOCTYPE svg PUBLIC "-//W3C//DTD SVG 1.1//EN" "http://www.w3.org/Graphics/SVG/1.1/DTD/svg11.dtd">
<svg version="1.1" id="Layer_1" xmlns="http://www.w3.org/2000/svg" xmlns:xlink="http://www.w3.org/1999/xlink" x="0px" y="0px"
	 width="92.3px" height="86.3px" viewBox="0 0 92.3 86.3" enable-background="new 0 0 92.3 86.3" xml:space="preserve">
<g>
	<path fill-rule="evenodd" clip-rule="evenodd" fill="#262626" d="M45.5,14.2c16.4,0,29.7,13.3,29.8,29.7
		c0,16.4-13.3,29.8-29.8,29.8c-16.4,0-29.7-13.3-29.7-29.8C15.8,27.5,29.1,14.2,45.5,14.2z M40.7,44c0,6.4,0,12.8,0,19.1
		c2.6,0,5.1,0,7.7,0c0-6.4,0-12.8,0-19.2c1.8,0,3.6,0,5.4,0c0.2-2.2,0.4-4.3,0.6-6.4c-2,0-4,0-5.9,0c0-0.1,0-0.2,0-0.3
		c0-0.9,0-1.8,0-2.7c0-0.5,0-0.9,0-1.4c0.1-0.9,0.5-1.4,1.5-1.4c0.1,0,0.3,0,0.4,0c1.3,0,2.5,0,3.8,0c0.1,0,0.2,0,0.2,0
		c0-2.2,0-4.5,0-6.7c-0.1,0-0.1,0-0.2,0c-1.8,0-3.6,0-5.3,0c-1.4,0-2.9,0.2-4.2,0.7c-1.5,0.6-2.6,1.6-3.2,3.1
		c-0.4,1-0.6,2.1-0.6,3.2c0,1.7,0,3.5,0,5.2c0,0.1,0,0.2,0,0.3c-1.3,0-2.7,0-4,0c0,2.2,0,4.3,0,6.5C38.1,44,39.4,44,40.7,44z"/>
	<path fill-rule="evenodd" clip-rule="evenodd" fill="#C9A84D" d="M40.7,44c-1.3,0-2.7,0-4,0c0-2.2,0-4.3,0-6.5c1.3,0,2.6,0,4,0
		c0-0.1,0-0.2,0-0.3c0-1.7,0-3.5,0-5.2c0-1.1,0.2-2.2,0.6-3.2c0.6-1.5,1.7-2.5,3.2-3.1c1.4-0.5,2.8-0.7,4.2-0.7c1.8,0,3.6,0,5.3,0
		c0,0,0.1,0,0.2,0c0,2.2,0,4.4,0,6.7c-0.1,0-0.2,0-0.2,0c-1.3,0-2.5,0-3.8,0c-0.1,0-0.3,0-0.4,0c-0.9,0-1.4,0.5-1.5,1.4
		c0,0.5,0,0.9,0,1.4c0,0.9,0,1.8,0,2.7c0,0.1,0,0.2,0,0.3c2,0,3.9,0,5.9,0c-0.2,2.2-0.4,4.3-0.6,6.4c-1.8,0-3.6,0-5.4,0
		c0,6.4,0,12.8,0,19.2c-2.6,0-5.1,0-7.7,0C40.7,56.8,40.7,50.4,40.7,44z"/>
</g>
</svg>
