<?xml version="1.0" encoding="utf-8"?>
<!-- Generator: Adobe Illustrator 16.0.0, SVG Export Plug-In . SVG Version: 6.00 Build 0)  -->
<!DOCTYPE svg PUBLIC "-//W3C//DTD SVG 1.1//EN" "http://www.w3.org/Graphics/SVG/1.1/DTD/svg11.dtd">
<svg version="1.1" id="Layer_1" xmlns="http://www.w3.org/2000/svg" xmlns:xlink="http://www.w3.org/1999/xlink" x="0px" y="0px"
	 width="92.3px" height="86.3px" viewBox="0 0 92.3 86.3" enable-background="new 0 0 92.3 86.3" xml:space="preserve">
<g>
	<path d="M45.5,14.2c16.4,0,29.701,13.3,29.8,29.7C75.3,60.3,62,73.701,45.5,73.701c-16.4,0-29.7-13.301-29.7-29.801
		C15.8,27.5,29.1,14.2,45.5,14.2z M40.7,44c0,6.4,0,12.801,0,19.101c2.6,0,5.1,0,7.7,0c0-6.399,0-12.8,0-19.2c1.801,0,3.6,0,5.4,0
		c0.199-2.2,0.4-4.3,0.6-6.4c-2,0-4,0-5.9,0c0-0.1,0-0.2,0-0.3c0-0.9,0-1.8,0-2.7c0-0.5,0-0.9,0-1.4c0.101-0.9,0.5-1.4,1.5-1.4
		c0.101,0,0.301,0,0.4,0c1.301,0,2.5,0,3.801,0c0.1,0,0.199,0,0.199,0c0-2.2,0-4.5,0-6.7c-0.1,0-0.1,0-0.199,0
		C52.4,25,50.6,25,48.9,25c-1.4,0-2.9,0.2-4.2,0.7c-1.5,0.6-2.6,1.6-3.2,3.1c-0.4,1-0.6,2.1-0.6,3.2c0,1.7,0,3.5,0,5.2
		c0,0.1,0,0.2,0,0.3c-1.3,0-2.7,0-4,0c0,2.2,0,4.3,0,6.5C38.1,44,39.4,44,40.7,44z"/>
	<path fill="#FFFFFF" d="M40.7,44c-1.3,0-2.7,0-4,0c0-2.2,0-4.299,0-6.5c1.3,0,2.6,0,4,0c0-0.1,0-0.2,0-0.3c0-1.7,0-3.5,0-5.2
		c0-1.1,0.2-2.2,0.6-3.2c0.6-1.5,1.7-2.5,3.2-3.1c1.4-0.5,2.8-0.7,4.201-0.7c1.799,0,3.6,0,5.299,0c0,0,0.101,0,0.201,0
		c0,2.2,0,4.4,0,6.7c-0.101,0-0.201,0-0.201,0c-1.299,0-2.5,0-3.799,0c-0.101,0-0.301,0-0.4,0c-0.9,0-1.4,0.5-1.5,1.4
		c0,0.5,0,0.9,0,1.4c0,0.9,0,1.8,0,2.7c0,0.1,0,0.2,0,0.3c2,0,3.9,0,5.9,0C54,39.7,53.8,41.8,53.6,43.9c-1.8,0-3.601,0-5.399,0
		c0,6.4,0,12.801,0,19.2c-2.601,0-5.101,0-7.701,0C40.7,56.8,40.7,50.4,40.7,44z"/>
</g>
</svg>
