<?xml version="1.0" encoding="utf-8"?>
<!-- Generator: Adobe Illustrator 16.0.0, SVG Export Plug-In . SVG Version: 6.00 Build 0)  -->
<!DOCTYPE svg PUBLIC "-//W3C//DTD SVG 1.1//EN" "http://www.w3.org/Graphics/SVG/1.1/DTD/svg11.dtd">
<svg version="1.1" id="Layer_1" xmlns="http://www.w3.org/2000/svg" xmlns:xlink="http://www.w3.org/1999/xlink" x="0px" y="0px"
	 width="618.1px" height="210px" viewBox="0 0 618.1 210" enable-background="new 0 0 618.1 210" xml:space="preserve">
<g>
	<g>
		<path fill-rule="evenodd" clip-rule="evenodd" fill="#FFFFFF" d="M399.3,154c-92.4,0-184.8,0-277.1,0c0-26.2,0-52.3,0-78.5
			c135.9,0,271.9,0,407.8,0c0,26.2,0,52.3,0,78.5c-41.9,0-83.7,0-125.6,0c1.2-0.4,2.4-0.8,3.6-1.3c6.3-2.7,10.1-7.8,13-13.7
			c1.3-2.7,2-5.5,3.1-8.3c0.3-0.7,0.9-1.5,1.6-1.7c1.7-0.6,3.6-1.1,5.4-1.4c6.7-1.1,13.3-2.2,20-3c8.8-1,17.6-1.8,26.5-2.3
			c7.2-0.4,14.4-0.3,21.6-0.5c7.4-0.2,14.9-0.4,22.3-0.7c1.4,0,2.9-0.2,4.3-0.4c0-0.2,0-0.4,0-0.6c-2.2-0.1-4.4-0.3-6.5-0.3
			c-2.9-0.1-5.9-0.1-8.8-0.1c-2.5-0.1-5-0.3-7.4-0.2c-3,0.1-6,0.5-9,0.5c-1.2,0-2.3-0.2-3.5,0.4c-1,0.5-2.5-0.2-3.7-0.2
			c-4.2,0.1-8.4,0.2-12.6,0.4c-7.4,0.4-14.8,0.5-22.2,1.3c-7.1,0.8-14.2,2.4-21.2,3.7c-1.8,0.3-3.7,0.6-5.9,1
			c0.5-6.9,1.1-13.4,1.5-20c0-0.6-0.6-1.2-0.9-1.8c-0.5,0.4-1.2,0.7-1.4,1.2c-1.2,3.6-3.5,6.6-6.2,9.2c-0.7,0.6-1.5,1.1-2.7,1.9
			c0.1-1.2,0-1.9,0.2-2.5c0.8-2.4,1.8-4.7,2.6-7c0.1-0.4-0.2-1-0.2-1.5c-0.4,0.2-0.9,0.4-1.2,0.7c-0.3,0.2-0.4,0.7-0.6,1
			c-1.9,3.3-4.8,5.5-7.9,7.4c-0.4,0.3-1.2,0.4-1.6,0.1c-0.3-0.2-0.4-1.1-0.3-1.5c0.4-1.3,0.9-2.6,1.6-3.9c0.8-1.5,1.8-3,2.5-4.5
			c0.3-0.7,0.3-1.8-0.1-2.4c-0.3-0.4-1.5-0.3-2.2-0.2c-1.7,0.2-3.4,0.3-5,0.7c-0.9,0.3-3.1-0.3-2.6,1.3c0.4,1.6-0.4,2.3-1,3.2
			c-2.1,3.4-4.7,6.4-9.1,6.6c-1.2,0.1-2.7,0.3-3-1.3c-0.1-0.4,1.4-1.1,2-1.7c1.7-1.6,3.7-3,5-4.9c1.1-1.6-0.1-3.4-1.7-2.9
			c-1.9,0.6-4.1,1.4-5.2,2.9c-3,4.2-7,6.9-11.5,9.1c-1.2,0.6-3,0.9-4.1,0.5c-1.7-0.7-1.1-2.7-1-4.2c0-0.2,0.1-0.4,0.1-0.6
			c0.6-5.2,2.7-9.9,5-14.5c0.3-0.7,1.3-1.4,2-1.5c4.5-0.5,9-1,13.4-1.3c6.9-0.4,13.7-0.6,20.6-0.9c10-0.5,19.9-1,29.9-1.4
			c3.9-0.2,7.9-0.2,11.8-0.4c0.4,0,0.8-0.3,1.2-0.5c-25.2-1-50.3-0.3-75.4-0.1c0.5-1.1,1.1-2.2,1.5-3.4c0.1-0.4-0.3-1.1-0.5-1.6
			c-0.5,0.2-1.2,0.3-1.5,0.7c-0.6,0.9-1.1,1.9-1.4,2.9c-0.5,1.6-1.6,2-3,2.1c-2.6,0.2-5.3,0.5-7.9,0.7c-1.8,0.1-3.6,0.3-5.9,0.4
			c1-2,1.8-3.3,2.3-4.8c0.2-0.6-0.1-1.3-0.2-2c-0.6,0.3-1.5,0.5-1.9,1.1c-1,1.6-1.7,3.5-2.7,5.1c-0.4,0.7-1.3,1.2-2.1,1.4
			c-4.1,0.9-8.2,1.6-12.3,2.4c-1,0.2-1.9,0.5-1.6,1.6c0.3,1.1,1.1,1.4,2.2,1.1c2.1-0.5,4.3-0.9,6.4-1.3c1.4-0.3,2.8-0.4,4.6-0.7
			c-0.4,1.1-0.7,1.7-0.9,2.4c-0.8,1.9-1.6,3.8-2.2,5.7c-0.7,2.2-3.4,4.9-6,5.3c0-0.6,0.2-1.3,0-1.7c-0.6-1.1-1.3-2.6-2.3-3
			c-2.9-1.1-7.3,0.8-8.9,3.6c-1.2,2.2-0.9,4.4,0.4,6.4c1.1,1.7,2.9,2.3,4.7,1.7c1.2-0.4,2.1-1.4,3.2-2.1c2.3-1.6,4.6-3.2,7.2-5
			c0,1.3,0.1,2.2,0,3.1c-0.7,5.3,3.4,7,6.8,5.6c1.9-0.8,3.6-1.9,5.3-3.1c1.9-1.4,3.7-3.1,5.7-4.8c-0.1,1.1,0,1.9-0.1,2.6
			c-0.5,3.1,0.9,5.4,4,5.6c1.5,0.1,3.3-0.4,4.7-1.1c2.5-1.4,4.8-3.2,7.2-4.9c0.2,0.3,0.4,0.6,0.6,1c1.2,2.2,3,3,5.4,2.7
			c4.5-0.5,7.8-2.9,9.7-6.8c1.8-3.8,5-4.5,8.8-5.6c-0.6,1.1-0.9,1.8-1.3,2.5c-1.2,1.9-2.6,3.7-3.4,5.8c-0.4,1.1-0.2,3.1,0.5,3.8
			c0.7,0.7,2.6,0.8,3.8,0.5c1.3-0.3,2.4-1.4,3.6-2.2c0.4-0.2,0.8-0.5,1.4-0.8c0,0.6,0,1-0.1,1.3c-0.3,1.4-0.6,2.9,1.1,3.7
			c1.6,0.8,2.8-0.1,3.8-1.3c1.5-1.7,3.1-3.4,4.8-5.2c0.2,1.8,0.6,3.5,0.5,5.1c-0.1,2.8-0.6,5.6-0.8,8.4c-0.1,1.2-0.6,1.8-1.7,2.2
			c-4.3,1.4-8.6,2.7-12.7,4.3c-5.6,2.2-11,4.8-15.3,9.1c-3.6,3.6-3.3,7.8,1,10.4C395.6,152.7,397.5,153.3,399.3,154z M133.5,93.1
			c0,1,0,1.8,0,2.7c0.2,3.1-0.5,6-1.7,8.8c-0.5,1.2-0.9,2.4-1.3,3.6c-1.2,3.6-2.4,7.3-3.6,11c-1.2,3.5-2.5,7-3.8,10.5
			c-0.5,1.4-0.6,2.7,0.9,3.2c0.4,0.1,1.6-1.2,1.9-2c1.5-3.5,2.4-7.4,4.3-10.7c4.6-8.2,9-16.7,16.3-23.1c3.1-2.7,6.4-5.2,9.9-7.2
			c3.3-1.9,4.7-1,4.2,2.7c-0.6,4.1-2,8-2.9,12c-1.2,5.1-2.6,10.1-3.5,15.2c-1,5.5,4.3,9.7,9.3,7.4c2.9-1.3,5.5-3.5,8.1-5.5
			c2.2-1.6,4.2-3.5,6.3-5.2c1.2,1.4,3.3,1.2,5.2,0.3c1.9-0.9,3.6-2.2,5.4-3.3c0.2,0.3,0.3,0.5,0.4,0.7c1.8,2.9,4.2,3.4,6.9,1.4
			c1-0.8,1.9-1.8,2.8-2.6c0.3-0.3,0.7-0.6,1.2-1c0.1,0.6,0.2,0.9,0.1,1.1c-0.4,1.9,0,3.8,1.5,5c1.7,1.4,3.8,1.5,5.8,0.5
			c1.7-0.9,3.4-1.9,4.9-3c1.6-1.2,3.1-2.5,4.8-3.9c0,0.5,0,0.8-0.1,1c-0.5,1.6-0.2,3.3,1.2,3.9c1.2,0.5,2.8,0.1,4.1-0.3
			c1-0.3,1.7-1.3,2.6-2c0.5-0.4,1-0.9,1.5-1.3c2,3.2,3.7,3.8,6.5,2.4c0.9-0.5,1.8-1.2,2.6-2c1.2-1.3,2.4-2.7,3.3-4.2
			c1.9-3.1,5-3.6,8.6-4.7c-0.7,1.2-1,1.9-1.5,2.6c-1.1,1.9-2.4,3.7-3.4,5.6c-0.6,1.3-0.9,2.9,0.5,4.1c1.3,1.2,2.8,1,4.3,0.3
			c0.9-0.5,1.9-1,2.8-1.6c1.7,2.2,3.3,2.7,5.6,1.7c1.5-0.7,2.9-1.7,4.3-2.6c0.5-0.3,1-0.7,1.5-1c2.5,4.1,5,4.5,8.4,1.3
			c1.9-1.8,3.3-4.1,4.9-6.2c0.4-0.5,0.4-1.3,0.5-1.8c-1.8,1.7-3.6,3.3-5.3,5c-0.7,0.7-1.4,1.4-2.2,1.8c-0.7,0.4-2,0.8-2.4,0.5
			c-0.6-0.5-0.8-1.7-0.7-2.6c0.2-1.2,0.7-2.5,1.2-3.6c0.5-1.1,0.5-1.8-0.8-2.2c-0.5-0.2-1-0.5-1.5-0.8c-1.3-0.9-2.8-1.1-4-0.3
			c-3.1,1.9-6.2,3.8-8.5,6.9c-1.1,1.5-3,2.6-4.6,3.7c-0.4,0.3-1.1,0.2-1.6,0c-0.2-0.1-0.3-1-0.2-1.4c0.4-1.3,0.9-2.7,1.5-3.9
			c0.8-1.6,1.9-3.1,2.6-4.7c0.3-0.6,0.3-1.8-0.1-2.2c-0.4-0.4-1.5-0.4-2.2-0.3c-1.7,0.2-3.5,0.3-5.2,0.8c-1,0.3-3.6-0.5-2.3,2.3
			c0.1,0.2-0.2,0.7-0.5,1c-1.8,1.9-3.5,3.8-5.4,5.5c-0.9,0.8-2.2,2.4-3.4,1.2c-0.5-0.5,0-2.5,0.4-3.7c0.4-1.1,1.3-2.1,1.9-3.1
			c-0.2-0.2-0.3-0.4-0.5-0.6c-0.9,0.4-1.9,0.7-2.6,1.3c-2,1.8-3.7,3.9-5.8,5.6c-1,0.8-2.5,1.1-3.8,1.6c0.2-1.5,0.3-3.1,0.8-4.5
			c0.4-1.3,1.3-2.4,2.1-3.8c-1.8-0.3-3.1-0.6-4.1,1c-2.8,4.5-7.4,6.9-12,9c-2.7,1.2-4.2,0-4.1-3c0-0.5,0.1-1,0.1-1.5
			c0.6-5.3,2.7-10.1,5.2-14.8c0.3-0.7,1.3-1.3,2-1.4c2.8-0.4,5.6-0.7,8.4-0.9c8.5-0.5,16.9-0.9,25.4-1.3c9.8-0.5,19.6-1,29.3-1.4
			c4.1-0.2,8.3-0.3,12.4-0.4c0.4,0,0.8-0.3,1.3-0.5c-1.1-0.3-1.9-0.3-2.8-0.3c-0.7,0-1.4,0.1-2.1,0c-0.9-0.1-2-0.8-2.6-0.5
			c-1.2,0.6-2.3,0.2-3.4,0.2c-10.9,0-21.8-0.2-32.6,0.2c-9,0.3-18,1.1-27.1,1.7c-1.8,0.1-3.6,0.2-5.8,0.4c1-2,1.8-3.4,2.4-4.9
			c0.2-0.5-0.2-1.3-0.3-2c-0.6,0.3-1.4,0.5-1.7,1c-1,1.7-1.6,3.5-2.6,5.1c-0.4,0.7-1.4,1.3-2.3,1.4c-4.1,0.9-8.3,1.6-12.5,2.5
			c-0.5,0.1-0.9,1.1-1.3,1.6c0.7,0.4,1.3,0.9,2,1c0.7,0.1,1.5-0.3,2.3-0.4c2.9-0.5,5.7-1,9.1-1.7c-0.5,1.2-0.9,2-1.2,2.7
			c-0.7,1.8-1.6,3.5-2.1,5.4c-1.1,4.4-4.3,6.9-7.6,9.3c-1.6,1.1-2.8,0.2-2.6-1.7c0.2-1.5,0.9-2.9,1.3-4.4c0.1-0.6,0.1-1.5-0.2-1.8
			c-3.3-2.5-4.5-2.4-8.1-0.1c-0.5,0.3-1.1,0.7-1.6,1c-2.5,1.8-5.4,3.3-6.2,6.8c-0.1,0.3-0.4,0.5-0.7,0.7c-1.7,1.5-3.5,2.9-5.2,4.4
			c-2.7,2.4-5.1,5-8.7,6.2c-3.2,1.1-5,0.1-5.4-3.3c-0.1-1.1-0.1-2.3,0.1-3.5c0.7-3.3,1.5-6.6,2.3-9.9c1.3-5,2.5-10.1,3.9-15.1
			c0.5-2,0.2-4-1.4-5.1c-1.7-1.3-3.7-1.1-5.8-0.1c-5.1,2.5-8.9,6.5-12.9,10.3c-3,2.9-5.2,6.5-7.7,9.9c-0.9,1.3-1.8,2.6-2.7,3.9
			c-0.2-0.1-0.3-0.1-0.5-0.2c0.7-2.2,1.5-4.4,2-6.7c0.7-3.2,1.3-6.4,1.8-9.6C135.9,94,135.4,93,133.5,93.1z M293.4,124.3
			c5.6,1.6,11.3,1,17-0.5c6-1.6,11.2-4.5,15.8-8.4c4-3.3,6.9-7.5,8-12.7c1.5-7.2-0.4-12.3-7-15.3c-4.7-2.1-9.8-1.6-14.7-0.5
			c-2.7,0.6-5.4,1.5-7.9,2.3c-0.6-0.8-1.1-2-1.7-2.1c-1.4-0.2-1.2,1.3-1.6,2.2c-0.5,1-1.2,1.9-2,2.6c-1.7,1.3-3.7,2.4-5.4,3.7
			c-4.1,3.2-7.9,6.6-10.6,11.1c-0.4,0.6-0.7,1.4-0.7,2.1c0,0.5,0.6,1,0.9,1.5c0.4-0.4,0.8-0.7,1.1-1.2c0.5-0.8,0.7-1.9,1.3-2.5
			c3.7-4,7.4-8.1,12.1-11c0.6-0.3,1.2-0.6,1.7-1c0.2,0.1,0.4,0.3,0.6,0.4c-2.9,8.9-5.7,17.8-8.7,27c-2.2-1.2-4.2-2.2-6.1-3.2
			c-0.2,0.3-0.3,0.5-0.5,0.8c1.6,1.1,3,2.4,4.7,3.3c1.4,0.7,1.4,1.2,0.9,2.5c-1.6,4.4-3.1,8.9-4.5,13.4c-0.1,0.4,0.2,0.9,0.4,1.3
			c0.3,0,0.5,0.1,0.8,0.1C289.4,134.9,291.4,129.7,293.4,124.3z"/>
		<path fill-rule="evenodd" clip-rule="evenodd" d="M399.3,154c-1.8-0.8-3.8-1.3-5.4-2.3c-4.4-2.6-4.7-6.8-1-10.4
			c4.4-4.3,9.8-6.9,15.3-9.1c4.2-1.6,8.5-3,12.7-4.3c1.2-0.4,1.6-0.9,1.7-2.2c0.2-2.8,0.7-5.6,0.8-8.4c0.1-1.6-0.3-3.3-0.5-5.1
			c-1.7,1.9-3.3,3.5-4.8,5.2c-1.1,1.2-2.2,2.1-3.8,1.3c-1.7-0.8-1.4-2.2-1.1-3.7c0.1-0.3,0.1-0.6,0.1-1.3c-0.6,0.4-1,0.6-1.4,0.8
			c-1.2,0.8-2.3,1.9-3.6,2.2c-1.2,0.3-3.1,0.2-3.8-0.5c-0.7-0.8-0.9-2.7-0.5-3.8c0.8-2.1,2.2-3.9,3.4-5.8c0.4-0.7,0.8-1.4,1.3-2.5
			c-3.8,1.1-7,1.8-8.8,5.6c-1.8,3.9-5.2,6.3-9.7,6.8c-2.5,0.3-4.3-0.6-5.4-2.7c-0.2-0.4-0.5-0.8-0.6-1c-2.4,1.7-4.7,3.5-7.2,4.9
			c-1.4,0.8-3.2,1.3-4.7,1.1c-3-0.3-4.4-2.6-4-5.6c0.1-0.7,0.1-1.5,0.1-2.6c-2.1,1.8-3.8,3.4-5.7,4.8c-1.6,1.2-3.4,2.3-5.3,3.1
			c-3.4,1.4-7.5-0.3-6.8-5.6c0.1-0.9,0-1.9,0-3.1c-2.6,1.8-4.9,3.4-7.2,5c-1,0.7-2,1.7-3.2,2.1c-1.9,0.6-3.6,0-4.7-1.7
			c-1.3-2-1.7-4.2-0.4-6.4c1.6-2.8,5.9-4.7,8.9-3.6c1,0.4,1.6,1.9,2.3,3c0.2,0.4,0,1.1,0,1.7c2.6-0.4,5.3-3.1,6-5.3
			c0.6-1.9,1.5-3.8,2.2-5.7c0.3-0.6,0.5-1.3,0.9-2.4c-1.8,0.3-3.2,0.4-4.6,0.7c-2.2,0.4-4.3,0.8-6.4,1.3c-1.2,0.3-2,0-2.2-1.1
			c-0.3-1.2,0.6-1.5,1.6-1.6c4.1-0.7,8.2-1.5,12.3-2.4c0.8-0.2,1.7-0.7,2.1-1.4c1-1.6,1.7-3.5,2.7-5.1c0.3-0.5,1.2-0.7,1.9-1.1
			c0.1,0.7,0.4,1.5,0.2,2c-0.6,1.5-1.4,2.8-2.3,4.8c2.3-0.2,4.1-0.3,5.9-0.4c2.6-0.2,5.2-0.5,7.9-0.7c1.5-0.1,2.6-0.5,3-2.1
			c0.3-1,0.8-2,1.4-2.9c0.3-0.4,1-0.5,1.5-0.7c0.2,0.5,0.7,1.2,0.5,1.6c-0.4,1.2-1,2.3-1.5,3.4c25.2-0.2,50.2-1,75.4,0.1
			c-0.4,0.2-0.8,0.5-1.2,0.5c-3.9,0.2-7.9,0.2-11.8,0.4c-10,0.5-19.9,1-29.9,1.4c-6.9,0.3-13.7,0.5-20.6,0.9
			c-4.5,0.3-9,0.7-13.4,1.3c-0.7,0.1-1.7,0.8-2,1.5c-2.3,4.6-4.5,9.3-5,14.5c0,0.2-0.1,0.4-0.1,0.6c0,1.5-0.6,3.5,1,4.2
			c1.1,0.5,2.9,0.1,4.1-0.5c4.5-2.1,8.5-4.8,11.5-9.1c1-1.5,3.3-2.3,5.2-2.9c1.6-0.5,2.8,1.3,1.7,2.9c-1.3,1.9-3.3,3.3-5,4.9
			c-0.7,0.6-2.1,1.3-2,1.7c0.3,1.6,1.8,1.4,3,1.3c4.4-0.3,7-3.2,9.1-6.6c0.5-0.9,1.4-1.7,1-3.2c-0.4-1.6,1.7-1,2.6-1.3
			c1.6-0.5,3.3-0.6,5-0.7c0.8-0.1,1.9-0.2,2.2,0.2c0.4,0.6,0.4,1.7,0.1,2.4c-0.7,1.6-1.7,3-2.5,4.5c-0.6,1.2-1.2,2.6-1.6,3.9
			c-0.1,0.5,0,1.3,0.3,1.5c0.3,0.2,1.2,0.1,1.6-0.1c3.2-1.9,6-4.1,7.9-7.4c0.2-0.3,0.3-0.8,0.6-1c0.3-0.3,0.8-0.5,1.2-0.7
			c0.1,0.5,0.4,1.1,0.2,1.5c-0.8,2.4-1.8,4.7-2.6,7c-0.2,0.6-0.1,1.3-0.2,2.5c1.2-0.9,2.1-1.3,2.7-1.9c2.7-2.6,5-5.5,6.2-9.2
			c0.2-0.5,0.9-0.8,1.4-1.2c0.3,0.6,0.9,1.2,0.9,1.8c-0.4,6.6-1,13.1-1.5,20c2.2-0.4,4-0.6,5.9-1c7.1-1.2,14.1-2.9,21.2-3.7
			c7.3-0.8,14.8-0.9,22.2-1.3c4.2-0.2,8.4-0.3,12.6-0.4c1.3,0,2.7,0.7,3.7,0.2c1.3-0.6,2.3-0.4,3.5-0.4c3,0,6-0.4,9-0.5
			c2.5-0.1,4.9,0.2,7.4,0.2c2.9,0.1,5.9,0.1,8.8,0.1c2.2,0.1,4.4,0.2,6.5,0.3c0,0.2,0,0.4,0,0.6c-1.4,0.1-2.9,0.3-4.3,0.4
			c-7.4,0.2-14.9,0.5-22.3,0.7c-7.2,0.2-14.4,0.1-21.6,0.5c-8.8,0.5-17.7,1.3-26.5,2.3c-6.7,0.7-13.3,1.9-20,3
			c-1.8,0.3-3.7,0.8-5.4,1.4c-0.7,0.2-1.3,1-1.6,1.7c-1.1,2.7-1.8,5.6-3.1,8.3c-2.8,5.9-6.7,11-13,13.7c-1.2,0.5-2.4,0.9-3.6,1.3
			C402.7,154,401,154,399.3,154z M422.6,129.9c-1.2,0.2-1.8,0.3-2.4,0.5c-5.3,1.9-10.7,3.6-15.8,6c-3.4,1.6-6.6,4-9.5,6.5
			c-3.1,2.7-2.4,6.1,1.2,8.3c2.9,1.7,6.1,1.8,9.1,0.7c5.1-1.9,9-5.4,11.9-10c0.8-1.2,1.3-2.5,1.9-3.8
			C420.2,135.6,421.3,133,422.6,129.9z M362,95.6c-0.1-0.2-0.2-0.5-0.3-0.7c-1.1,0.5-2.8,0.7-3.3,1.5c-2.8,5.1-5.2,10.5-5.5,16.5
			c-0.2,3.2,1.3,4.4,4.2,3.1c6.7-2.9,12.4-6.8,14.1-14.6c0.3-1.6,1.2-3,2-4.9c-1.3,0.2-2.2,0.2-3,0.4c-2.8,0.5-5.5,1.2-8.3,1.6
			c-0.6,0.1-1.3-0.7-1.9-1c0.4-0.6,0.7-1.1,1.2-1.6C361.3,95.6,361.7,95.7,362,95.6z M344.7,109.6c-0.3-2-0.9-3.1-2.5-3.1
			c-1.2,0-2.1,0.7-2.1,2c-0.1,1.4,1.5,3.4,2.6,3C343.6,111.2,344.2,110.1,344.7,109.6z M341.5,113.8c-1.4-1.6-2.8-3.1-4.1-4.6
			c-1.1,1.4-1.1,4.3,0.4,5.5C339.3,115.8,340.5,114.7,341.5,113.8z M392.9,106c-0.1-0.1-0.2-0.3-0.4-0.4c-2.1,0.5-3.9,2.2-4.1,4.4
			C390.2,108.5,391.6,107.2,392.9,106z"/>
		<path fill-rule="evenodd" clip-rule="evenodd" d="M133.5,93.1c1.9-0.1,2.5,0.9,2.2,2.3c-0.5,3.2-1.1,6.4-1.8,9.6
			c-0.5,2.3-1.3,4.5-2,6.7c0.2,0.1,0.3,0.1,0.5,0.2c0.9-1.3,1.7-2.6,2.7-3.9c2.5-3.3,4.7-7,7.7-9.9c4-3.8,7.8-7.8,12.9-10.3
			c2.1-1,4.1-1.1,5.8,0.1c1.5,1.1,1.9,3.1,1.4,5.1c-1.3,5-2.6,10.1-3.9,15.1c-0.8,3.3-1.6,6.6-2.3,9.9c-0.2,1.1-0.2,2.3-0.1,3.5
			c0.4,3.4,2.2,4.4,5.4,3.3c3.6-1.2,6-3.9,8.7-6.2c1.7-1.5,3.5-2.9,5.2-4.4c0.2-0.2,0.6-0.4,0.7-0.7c0.8-3.4,3.6-5,6.2-6.8
			c0.5-0.4,1.1-0.7,1.6-1c3.6-2.3,4.8-2.3,8.1,0.1c0.3,0.3,0.4,1.2,0.2,1.8c-0.4,1.5-1.1,2.9-1.3,4.4c-0.3,1.9,1,2.8,2.6,1.7
			c3.4-2.4,6.6-4.9,7.6-9.3c0.5-1.8,1.4-3.6,2.1-5.4c0.3-0.7,0.6-1.5,1.2-2.7c-3.4,0.6-6.2,1.1-9.1,1.7c-0.8,0.1-1.5,0.5-2.3,0.4
			c-0.7-0.1-1.3-0.7-2-1c0.4-0.6,0.8-1.5,1.3-1.6c4.1-0.9,8.3-1.6,12.5-2.5c0.8-0.2,1.8-0.8,2.3-1.4c1-1.6,1.7-3.5,2.6-5.1
			c0.3-0.5,1.1-0.7,1.7-1c0.1,0.7,0.5,1.4,0.3,2c-0.6,1.5-1.4,2.9-2.4,4.9c2.2-0.1,4-0.3,5.8-0.4c9-0.6,18-1.5,27.1-1.7
			c10.9-0.3,21.8-0.1,32.6-0.2c1.1,0,2.2,0.4,3.4-0.2c0.6-0.3,1.7,0.4,2.6,0.5c0.7,0.1,1.4,0,2.1,0c0.9,0,1.8,0,2.8,0.3
			c-0.4,0.2-0.8,0.5-1.3,0.5c-4.1,0.2-8.3,0.2-12.4,0.4c-9.8,0.4-19.6,0.9-29.3,1.4c-8.5,0.4-16.9,0.8-25.4,1.3
			c-2.8,0.2-5.6,0.5-8.4,0.9c-0.7,0.1-1.7,0.7-2,1.4c-2.4,4.7-4.6,9.5-5.2,14.8c-0.1,0.5-0.1,1-0.1,1.5c-0.1,3,1.4,4.2,4.1,3
			c4.7-2.1,9.2-4.5,12-9c1-1.6,2.3-1.4,4.1-1c-0.8,1.4-1.7,2.5-2.1,3.8c-0.5,1.4-0.5,3-0.8,4.5c1.3-0.5,2.8-0.8,3.8-1.6
			c2.1-1.7,3.8-3.8,5.8-5.6c0.7-0.6,1.7-0.9,2.6-1.3c0.2,0.2,0.3,0.4,0.5,0.6c-0.7,1-1.5,2-1.9,3.1c-0.4,1.2-1,3.1-0.4,3.7
			c1.2,1.2,2.5-0.4,3.4-1.2c1.9-1.7,3.6-3.6,5.4-5.5c0.2-0.3,0.6-0.8,0.5-1c-1.3-2.8,1.3-2,2.3-2.3c1.7-0.5,3.4-0.6,5.2-0.8
			c0.7-0.1,1.8-0.1,2.2,0.3c0.4,0.5,0.4,1.6,0.1,2.2c-0.7,1.6-1.8,3.1-2.6,4.7c-0.6,1.2-1.1,2.6-1.5,3.9c-0.1,0.4,0,1.2,0.2,1.4
			c0.4,0.2,1.2,0.2,1.6,0c1.6-1.2,3.4-2.2,4.6-3.7c2.3-3.1,5.4-5,8.5-6.9c1.2-0.8,2.7-0.6,4,0.3c0.5,0.3,1,0.7,1.5,0.8
			c1.3,0.4,1.3,1.1,0.8,2.2c-0.5,1.2-1.1,2.4-1.2,3.6c-0.1,0.8,0.1,2,0.7,2.6c0.4,0.3,1.7-0.1,2.4-0.5c0.8-0.4,1.5-1.2,2.2-1.8
			c1.8-1.6,3.5-3.3,5.3-5c-0.1,0.5-0.2,1.3-0.5,1.8c-1.6,2.1-3,4.4-4.9,6.2c-3.3,3.2-5.8,2.8-8.4-1.3c-0.5,0.4-1,0.7-1.5,1
			c-1.4,0.9-2.8,1.9-4.3,2.6c-2.3,1-3.9,0.5-5.6-1.7c-0.9,0.5-1.8,1.1-2.8,1.6c-1.5,0.8-3,0.9-4.3-0.3c-1.3-1.2-1.1-2.8-0.5-4.1
			c0.9-2,2.2-3.7,3.4-5.6c0.4-0.7,0.8-1.4,1.5-2.6c-3.5,1.1-6.7,1.6-8.6,4.7c-0.9,1.5-2.1,2.9-3.3,4.2c-0.7,0.8-1.6,1.5-2.6,2
			c-2.7,1.5-4.4,0.8-6.5-2.4c-0.5,0.5-1,0.9-1.5,1.3c-0.8,0.7-1.6,1.7-2.6,2c-1.3,0.4-3,0.8-4.1,0.3c-1.4-0.6-1.6-2.3-1.2-3.9
			c0.1-0.2,0-0.5,0.1-1c-1.7,1.4-3.2,2.8-4.8,3.9c-1.6,1.1-3.2,2.1-4.9,3c-2,1-4.1,0.9-5.8-0.5c-1.5-1.3-1.9-3.1-1.5-5
			c0-0.2,0-0.5-0.1-1.1c-0.5,0.4-0.9,0.7-1.2,1c-0.9,0.9-1.8,1.9-2.8,2.6c-2.8,2.1-5.2,1.6-6.9-1.4c-0.1-0.2-0.3-0.4-0.4-0.7
			c-1.8,1.2-3.5,2.4-5.4,3.3c-1.9,0.9-4,1.1-5.2-0.3c-2.1,1.7-4.1,3.6-6.3,5.2c-2.6,2-5.1,4.2-8.1,5.5c-5,2.3-10.3-2-9.3-7.4
			c0.9-5.1,2.3-10.2,3.5-15.2c1-4,2.3-8,2.9-12c0.6-3.7-0.9-4.7-4.2-2.7c-3.5,2.1-6.9,4.6-9.9,7.2c-7.3,6.3-11.6,14.8-16.3,23.1
			c-1.9,3.3-2.8,7.2-4.3,10.7c-0.4,0.8-1.6,2.2-1.9,2c-1.5-0.5-1.4-1.9-0.9-3.2c1.3-3.5,2.6-6.9,3.8-10.5c1.3-3.6,2.4-7.3,3.6-11
			c0.4-1.2,0.8-2.4,1.3-3.6c1.2-2.8,1.9-5.7,1.7-8.8C133.4,95,133.5,94.1,133.5,93.1z M179.3,114.4c0.8,0.3,1.5,0.9,1.9,0.7
			c1.9-1.1,3.8-2.1,5.4-3.5c1.1-0.9,1.9-2.3,2.6-3.5c0.3-0.5,0-1.5-0.4-2.1c-0.2-0.3-1.3-0.2-1.7,0.1c-2.1,1.6-4.2,3.2-6.1,5
			C180.3,111.7,180,112.9,179.3,114.4z M252.4,114.4c0.8,0.3,1.5,0.9,1.9,0.7c1.9-1.1,3.8-2.1,5.4-3.5c1.1-0.9,1.9-2.3,2.6-3.5
			c0.3-0.5,0-1.5-0.4-2.1c-0.2-0.3-1.3-0.2-1.7,0.1c-2.1,1.6-4.2,3.2-6.1,5C253.4,111.7,253.1,112.9,252.4,114.4z"/>
		<path fill-rule="evenodd" clip-rule="evenodd" d="M293.4,124.3c-2,5.4-4,10.7-6,15.9c-0.3,0-0.5-0.1-0.8-0.1
			c-0.1-0.5-0.5-1-0.4-1.3c1.5-4.5,2.9-9,4.5-13.4c0.5-1.3,0.4-1.8-0.9-2.5c-1.7-0.8-3.2-2.2-4.7-3.3c0.2-0.3,0.3-0.5,0.5-0.8
			c1.9,1,3.9,2,6.1,3.2c3-9.2,5.8-18.1,8.7-27c-0.2-0.1-0.4-0.3-0.6-0.4c-0.6,0.3-1.2,0.6-1.7,1c-4.7,2.9-8.4,7-12.1,11
			c-0.6,0.7-0.8,1.7-1.3,2.5c-0.3,0.5-0.7,0.8-1.1,1.2c-0.3-0.5-0.9-1-0.9-1.5c0-0.7,0.4-1.5,0.7-2.1c2.7-4.5,6.5-7.9,10.6-11.1
			c1.7-1.3,3.7-2.4,5.4-3.7c0.8-0.7,1.6-1.6,2-2.6c0.4-0.9,0.2-2.3,1.6-2.2c0.6,0.1,1.1,1.3,1.7,2.1c2.4-0.7,5.1-1.7,7.9-2.3
			c4.9-1,10-1.6,14.7,0.5c6.6,3,8.5,8.1,7,15.3c-1.1,5.2-4,9.4-8,12.7c-4.7,3.9-9.9,6.8-15.8,8.4C304.7,125.3,299,125.8,293.4,124.3
			z M300.4,123.5c9.9-0.8,18.3-4.4,25.3-10.9c4-3.7,6.3-8.4,6.6-14c0.2-4.6-2.5-8.5-7-9.6c-7.4-2-14.4,0.1-21.1,3.1
			c-0.7,0.3-1.2,1.4-1.5,2.2c-0.5,1.7-0.5,3.4-1.1,5.1c-2.3,7.3-4.8,14.5-7.2,21.7c-0.4,1.2-0.1,1.8,1,1.9
			C297.1,123.2,298.9,123.3,300.4,123.5z"/>
		<path fill-rule="evenodd" clip-rule="evenodd" fill="#FFFFFF" d="M422.6,129.9c-1.4,3.1-2.5,5.7-3.6,8.3c-0.6,1.3-1.1,2.6-1.9,3.8
			c-2.9,4.6-6.8,8.1-11.9,10c-3,1.1-6.2,1-9.1-0.7c-3.6-2.1-4.3-5.5-1.2-8.3c2.8-2.5,6-4.9,9.5-6.5c5.1-2.4,10.5-4.1,15.8-6
			C420.8,130.2,421.4,130.2,422.6,129.9z"/>
		<path fill-rule="evenodd" clip-rule="evenodd" fill="#FFFFFF" d="M362,95.6c-0.3,0.1-0.7,0-0.9,0.2c-0.5,0.5-0.8,1.1-1.2,1.6
			c0.7,0.4,1.4,1.1,1.9,1c2.8-0.4,5.6-1,8.3-1.6c0.9-0.2,1.7-0.2,3-0.4c-0.8,1.9-1.7,3.3-2,4.9c-1.7,7.8-7.4,11.7-14.1,14.6
			c-2.9,1.3-4.4,0.1-4.2-3.1c0.3-6,2.7-11.3,5.5-16.5c0.5-0.9,2.2-1,3.3-1.5C361.8,95.1,361.9,95.4,362,95.6z"/>
		<path fill-rule="evenodd" clip-rule="evenodd" fill="#FFFFFF" d="M344.7,109.6c-0.5,0.5-1.1,1.6-2,1.9c-1.1,0.4-2.7-1.6-2.6-3
			c0.1-1.3,0.9-2,2.1-2C343.8,106.5,344.4,107.6,344.7,109.6z"/>
		<path fill-rule="evenodd" clip-rule="evenodd" fill="#FFFFFF" d="M341.5,113.8c-1,0.9-2.1,2-3.7,0.9c-1.5-1.1-1.6-4.1-0.4-5.5
			C338.7,110.7,340,112.2,341.5,113.8z"/>
		<path fill-rule="evenodd" clip-rule="evenodd" fill="#FFFFFF" d="M392.9,106c-1.4,1.2-2.7,2.5-4.4,4c0.2-2.2,2-3.9,4.1-4.4
			C392.7,105.7,392.8,105.9,392.9,106z"/>
		<path fill-rule="evenodd" clip-rule="evenodd" fill="#FFFFFF" d="M179.3,114.4c0.7-1.5,1-2.7,1.7-3.4c1.9-1.8,4-3.4,6.1-5
			c0.4-0.3,1.5-0.3,1.7-0.1c0.4,0.6,0.6,1.5,0.4,2.1c-0.7,1.3-1.5,2.6-2.6,3.5c-1.6,1.4-3.6,2.5-5.4,3.5
			C180.9,115.3,180.1,114.7,179.3,114.4z"/>
		<path fill-rule="evenodd" clip-rule="evenodd" fill="#FFFFFF" d="M252.4,114.4c0.7-1.5,1-2.7,1.7-3.4c1.9-1.8,4-3.4,6.1-5
			c0.4-0.3,1.5-0.3,1.7-0.1c0.4,0.6,0.6,1.5,0.4,2.1c-0.7,1.3-1.5,2.6-2.6,3.5c-1.6,1.4-3.6,2.5-5.4,3.5
			C253.9,115.3,253.1,114.7,252.4,114.4z"/>
		<path fill-rule="evenodd" clip-rule="evenodd" fill="#FFFFFF" d="M300.4,123.5c-1.4-0.1-3.2-0.2-5-0.4c-1.1-0.1-1.4-0.7-1-1.9
			c2.5-7.2,4.9-14.5,7.2-21.7c0.5-1.6,0.6-3.4,1.1-5.1c0.2-0.8,0.8-1.9,1.5-2.2c6.7-3,13.6-5.1,21.1-3.1c4.4,1.2,7.2,5,7,9.6
			c-0.3,5.5-2.5,10.2-6.6,14C318.6,119.1,310.3,122.7,300.4,123.5z"/>
	</g>
</g>
</svg>
