<?xml version="1.0" encoding="utf-8"?>
<!-- Generator: Adobe Illustrator 16.0.0, SVG Export Plug-In . SVG Version: 6.00 Build 0)  -->
<!DOCTYPE svg PUBLIC "-//W3C//DTD SVG 1.1//EN" "http://www.w3.org/Graphics/SVG/1.1/DTD/svg11.dtd">
<svg version="1.1" id="Layer_1" xmlns="http://www.w3.org/2000/svg" xmlns:xlink="http://www.w3.org/1999/xlink" x="0px" y="0px"
	 width="82.8px" height="90.5px" viewBox="0 0 82.8 90.5" enable-background="new 0 0 82.8 90.5" xml:space="preserve">
<g>
	<path d="M12.5,48.3c0-1.2,0-2.3,0-3.5c0-0.2,0.1-0.3,0.1-0.5c0.3-4.1,1.4-8.1,3.4-11.7c4.6-8.4,11.6-13.5,21-15.3
		c1.1-0.2,2.3-0.3,3.4-0.5c1.2,0,2.301,0,3.5,0c0.1,0,0.301,0.1,0.4,0.1c3.6,0.2,7.1,1.1,10.3,2.7c9.101,4.5,14.7,11.7,16.7,21.7
		c0.199,1.1,0.3,2.3,0.5,3.4c0,1.2,0,2.3,0,3.5c0,0.2-0.1,0.3-0.1,0.5c-0.301,4.1-1.4,8.1-3.4,11.7c-4.6,8.399-11.6,13.5-21,15.3
		c-1.1,0.2-2.301,0.3-3.4,0.5c-1.199,0-2.3,0-3.5,0c-0.1,0-0.3-0.101-0.4-0.101C36.4,75.9,32.9,75,29.6,73.4
		C20.5,68.9,14.9,61.7,13,51.7C12.7,50.6,12.6,49.4,12.5,48.3z M20.9,60.1c0.1,0.101,0.2,0.101,0.3,0.2c4,2.4,8.3,3.601,12.9,3.601
		c4.8,0,9.3-1,13.3-3.601c7.7-5.1,11.5-12.3,11.801-21.5c0-0.8,0.199-1.2,0.799-1.7c1.4-1,2.5-2.3,3.4-3.7c-1.5,0.4-3.1,0.8-4.8,1.3
		c0.8-0.8,1.601-1.5,2.2-2.2c0.699-0.7,1.1-1.6,1.4-2.7c-1.701,0.9-3.301,1.6-5,2c-0.4,0.1-0.601,0-0.9-0.2
		c-2.7-2.6-6.9-3.2-10.2-1.4c-3.3,1.8-5.1,5.6-4.5,9.3c0,0.1,0,0.3,0,0.5c-7.3-0.5-13.3-3.6-18.1-9.2c-2.1,4.6-1.2,8.5,2.7,11.8
		c-0.8-0.2-1.4-0.2-2-0.4c-0.6-0.2-1.2-0.4-1.8-0.7c-0.4,3.6,2.3,7.1,6.8,8.7c-1.3,0.399-2.5,0.3-3.7,0.2c0.4,1.3,1.1,2.399,2,3.3
		c1.6,1.7,3.7,2.6,6.2,2.7C29.8,59.3,25.6,60.4,20.9,60.1z"/>
	<path fill="#FFFFFF" d="M20.9,60.1c4.7,0.301,8.9-0.899,12.8-3.8c-2.5-0.1-4.5-1-6.2-2.7c-0.9-0.899-1.6-2-2-3.3
		c1.3,0.101,2.5,0.2,3.7-0.2c-4.5-1.6-7.2-5.1-6.8-8.7c0.6,0.2,1.2,0.5,1.8,0.7c0.6,0.2,1.2,0.2,2,0.4c-4-3.3-4.8-7.2-2.7-11.8
		c4.8,5.6,10.8,8.7,18.1,9.2c0-0.2,0-0.3,0-0.5c-0.7-3.7,1.101-7.5,4.5-9.3c3.3-1.8,7.5-1.3,10.2,1.4c0.3,0.3,0.5,0.3,0.9,0.2
		c1.699-0.4,3.399-1.1,5-2c-0.301,1.1-0.801,2-1.4,2.7c-0.7,0.7-1.4,1.4-2.2,2.2c1.7-0.5,3.2-0.9,4.8-1.3C62.5,34.7,61.3,36,60,37
		c-0.6,0.4-0.799,0.9-0.799,1.7c-0.301,9.2-4,16.399-11.801,21.5c-4,2.6-8.5,3.7-13.3,3.6c-4.6,0-8.9-1.2-12.9-3.6
		C21.2,60.3,21,60.2,20.9,60.1z"/>
</g>
</svg>
